Patient4_TMGait_0pt2_03_left_21_GRF.mot
version=1
nRows=78
nColumns=19
inDegrees=no
endheader
time	F1x	F1y	F1z	M1x	M1y	M1z	F2x	F2y	F2z	M2x	M2y	M2z	EC1x	EC1y	EC1z	EC2x	EC2y	EC2z
43.96	-6.3647	-5.3465	-1.2617	0.60257	-1.117	-8.1677	-16.8258	765.9698	-45.7048	242.7508	61.0842	885.1397	-0.0592	0.0182	-0.0073	-0.0462	0.0165	0.9585
43.9804	-4.533	-3.412	-0.74399	0.3466	-0.98624	-5.3397	-20.245	782.0037	-46.6783	248.0404	62.6934	902.5013	-0.0592	0.0182	-0.0073	-0.0462	0.0165	0.9585
44.0007	-2.9551	-1.768	-0.30066	0.12692	-0.86621	-2.9167	-23.4915	799.9912	-47.4401	253.9092	64.0004	921.7623	-0.0592	0.0182	-0.0073	-0.0462	0.0165	0.9585
44.0211	-1.7366	-0.50857	0.042446	-0.043913	-0.77024	-1.0428	-26.1754	818.2398	-47.8078	259.7972	64.6978	940.9533	-0.0592	0.0182	-0.0073	-0.0462	0.0165	0.9585
44.0414	-0.88409	0.3645	0.2849	-0.1643	-0.7033	0.27412	-28.0039	834.8731	-47.6545	265.0949	64.5579	957.9208	-0.0592	0.0182	-0.0073	-0.0462	0.0165	0.9585
44.0618	-0.35071	0.90153	0.44123	-0.23918	-0.66513	1.1053	-28.8088	848.0381	-46.9411	269.208	63.4823	970.5686	-0.0592	0.0182	-0.0073	-0.0462	0.0165	0.9585
44.0821	-0.067753	1.1652	0.53233	-0.27401	-0.65325	1.5433	-28.5341	856.1377	-45.7143	271.6296	61.5046	977.1228	-0.0592	0.0182	-0.0073	-0.0462	0.0165	0.9585
44.1025	0.03907	1.2052	0.57884	-0.27078	-0.66216	1.6612	-27.2416	858.0967	-44.0732	272.026	58.7578	976.434	-0.0592	0.0182	-0.0073	-0.0462	0.0165	0.9585
44.1229	0.035813	1.0461	0.59653	-0.22387	-0.68254	1.4986	-25.1106	853.5411	-42.1429	270.2934	55.4439	968.1786	-0.0592	0.0182	-0.0073	-0.0462	0.0165	0.9585
44.1432	-0.026296	0.69449	0.59347	-0.12196	-0.70137	1.0711	-22.3775	842.8327	-40.0754	266.5623	51.8136	952.8778	-0.0592	0.0182	-0.0073	-0.0462	0.0165	0.9585
44.1636	-0.11152	0.14359	0.57104	0.048302	-0.70237	0.37776	-19.2498	826.9499	-38.0532	261.1503	48.1366	931.7239	-0.0592	0.0182	-0.0073	-0.0462	0.0165	0.9585
44.1839	-0.19462	-0.62118	0.5262	0.29818	-0.67125	-0.58898	-15.8723	807.3339	-36.2862	254.5078	44.6869	906.3856	-0.0592	0.0182	-0.0073	-0.0462	0.0165	0.9585
44.2043	-0.25835	-1.6041	0.45266	0.63046	-0.59425	-1.8155	-12.3586	785.703	-34.9706	247.1702	41.7152	878.8018	-0.0592	0.0182	-0.0073	-0.0462	0.0165	0.9585
44.2246	-0.29248	-2.7642	0.33925	1.0321	-0.45553	-3.2367	-8.8252	763.8669	-34.2437	239.7102	39.4151	850.9813	-0.0592	0.0182	-0.0073	-0.0462	0.0165	0.9585
44.245	-0.28823	-3.9804	0.17134	1.4622	-0.23753	-4.6999	-5.3603	743.5963	-34.1668	232.7044	37.8883	824.8665	-0.0592	0.0182	-0.0073	-0.0462	0.0165	0.9585
44.2654	-0.23405	-5.01	-0.063173	1.8366	0.075426	-5.9114	-2.0007	726.5011	-34.7158	226.6944	37.1257	802.1981	-0.0592	0.0182	-0.0073	-0.0462	0.0165	0.9585
44.2857	-0.12107	-5.4469	-0.36375	2.012	0.48555	-6.3857	1.2622	713.8411	-35.7853	222.1203	37.0148	784.3105	-0.0592	0.0182	-0.0073	-0.0462	0.0165	0.9585
44.3061	0.055145	-4.6827	-0.70882	1.7725	0.9687	-5.398	4.469	706.3363	-37.2232	219.249	37.3809	771.9345	-0.0592	0.0182	-0.0073	-0.0462	0.0165	0.9585
44.3264	0.29372	-1.9025	-1.0469	0.82606	1.4642	-1.9678	7.6719	704.0569	-38.8774	218.1307	38.0364	765.1026	-0.0592	0.0182	-0.0073	-0.0462	0.0165	0.9585
44.3468	0.5787	3.8873	-1.2853	-1.1842	1.8565	5.0907	10.8991	706.3446	-40.6164	218.5701	38.8191	763.0971	-0.0592	0.0182	-0.0073	-0.0462	0.0165	0.9585
44.3671	0.8694	13.7563	-1.2791	-4.6417	1.956	17.0373	14.1258	711.7479	-42.3382	220.1079	39.61	764.4061	-0.0592	0.0182	-0.0073	-0.0462	0.0165	0.9585
44.3875	1.0943	28.6369	-0.82382	-9.8821	1.4877	34.9507	17.2503	718.0607	-43.9578	222.0356	40.3291	766.779	-0.0592	0.0182	-0.0073	-0.0462	0.0165	0.9585
44.4079	1.1405	48.979	0.32988	-17.0721	0.11112	59.3169	20.0543	722.5039	-45.3756	223.4592	40.9154	767.4352	-0.0592	0.0182	-0.0073	-0.0462	0.0165	0.9585
44.4282	0.89449	74.3994	2.3911	-26.0811	-2.4612	89.6138	22.1854	722.1593	-46.4521	223.4438	41.3154	763.5011	-0.0592	0.0182	-0.0073	-0.0462	0.0165	0.9585
44.4486	0.28807	103.2989	5.4499	-36.3418	-6.3538	123.88	23.2674	714.6846	-47.0289	221.2415	41.4836	752.7075	-0.0592	0.0182	-0.0073	-0.0462	0.0165	0.9585
44.4689	-0.61871	132.8859	9.328	-46.8661	-11.3216	158.7727	23.1067	699.0721	-46.9788	216.5296	41.368	734.1091	-0.0592	0.0182	-0.0073	-0.0462	0.0165	0.9585
44.4893	-1.5546	160.7156	13.51	-56.8046	-16.6473	191.372	21.8295	676.0847	-46.2699	209.5425	40.9232	708.4852	-0.0592	0.0182	-0.0073	-0.0462	0.0165	0.9585
44.5096	-2.3347	186.4444	17.4356	-66.0599	-21.5999	221.2556	19.8388	647.8277	-44.9775	200.9367	40.1273	677.8962	-0.0592	0.0182	-0.0073	-0.0462	0.0165	0.9585
44.53	-2.902	210.9809	20.7861	-74.9676	-25.7807	249.4933	17.6261	616.6979	-43.2086	191.4644	38.9556	644.653	-0.0592	0.0182	-0.0073	-0.0462	0.0165	0.9585
44.5504	-3.2687	235.1617	23.4938	-83.8177	-29.1125	277.073	15.5573	584.6078	-41.045	181.7295	37.3898	610.5855	-0.0592	0.0182	-0.0073	-0.0462	0.0165	0.9585
44.5707	-3.4358	259.3949	25.68	-92.7267	-31.7397	304.4877	13.7915	552.802	-38.5796	172.1195	35.4782	576.8885	-0.0592	0.0182	-0.0073	-0.0462	0.0165	0.9585
44.5911	-3.4064	283.6668	27.5455	-101.6457	-33.9032	331.7495	12.3188	521.9289	-35.9542	162.8248	33.3628	544.1928	-0.0592	0.0182	-0.0073	-0.0462	0.0165	0.9585
44.6114	-3.2167	307.5452	29.2544	-110.3806	-35.8078	358.3823	11.0397	492.2232	-33.3246	153.9019	31.2195	512.7323	-0.0592	0.0182	-0.0073	-0.0462	0.0165	0.9585
44.6318	-2.8939	330.4857	30.8732	-118.7155	-37.5375	383.759	9.8587	463.7864	-30.8154	145.3652	29.1889	482.607	-0.0592	0.0182	-0.0073	-0.0462	0.0165	0.9585
44.6521	-2.4187	352.1854	32.3908	-126.5389	-39.072	407.5242	8.7295	436.7938	-28.5073	137.256	27.354	453.9971	-0.0592	0.0182	-0.0073	-0.0462	0.0165	0.9585
44.6725	-1.7737	372.5865	33.7804	-133.8343	-40.3778	429.6284	7.6599	411.5275	-26.442	129.6533	25.7436	427.1914	-0.0592	0.0182	-0.0073	-0.0462	0.0165	0.9585
44.6929	-0.98954	391.6323	35.0185	-140.5891	-41.4487	450.0732	6.6956	388.2896	-24.6324	122.6461	24.3475	402.5006	-0.0592	0.0182	-0.0073	-0.0462	0.0165	0.9585
44.7132	-0.14542	409.0934	36.0555	-146.7297	-42.2707	468.7056	5.9033	367.3022	-23.079	116.3004	23.1396	380.1486	-0.0592	0.0182	-0.0073	-0.0462	0.0165	0.9585
44.7336	0.64301	424.5632	36.8015	-152.1214	-42.7979	485.1964	5.3442	348.6627	-21.7851	110.6431	22.0962	360.229	-0.0592	0.0182	-0.0073	-0.0462	0.0165	0.9585
44.7539	1.2429	437.549	37.1491	-156.5984	-42.968	499.1279	5.0549	332.3051	-20.7581	105.6504	21.2083	342.6783	-0.0592	0.0182	-0.0073	-0.0462	0.0165	0.9585
44.7743	1.5378	447.6467	37.0159	-160.018	-42.7338	510.167	5.0388	317.9749	-20.0001	101.2415	20.4771	327.2486	-0.0592	0.0182	-0.0073	-0.0462	0.0165	0.9585
44.7946	1.4616	454.747	36.3912	-162.3342	-42.0975	518.2578	5.2717	305.2478	-19.495	97.2847	19.895	313.5151	-0.0592	0.0182	-0.0073	-0.0462	0.0165	0.9585
44.815	1.0051	459.1999	35.3625	-163.6621	-41.139	523.7914	5.7075	293.5903	-19.1976	93.6165	19.4318	300.9357	-0.0592	0.0182	-0.0073	-0.0462	0.0165	0.9585
44.8354	0.19242	461.9068	34.108	-164.3206	-40.0248	527.7104	6.2818	282.4472	-19.0393	90.0687	19.0409	288.9504	-0.0592	0.0182	-0.0073	-0.0462	0.0165	0.9585
44.8557	-0.92392	464.3316	32.8734	-164.8413	-38.9877	531.5187	6.9321	271.2948	-18.9427	86.4861	18.6656	277.0343	-0.0592	0.0182	-0.0073	-0.0462	0.0165	0.9585
44.8761	-2.2487	468.4155	31.9538	-165.937	-38.2986	537.1923	7.6267	259.6607	-18.8297	82.7303	18.2439	264.7155	-0.0592	0.0182	-0.0073	-0.0462	0.0165	0.9585
44.8964	-3.6372	476.4316	31.6669	-168.4445	-38.2395	547.039	8.3651	247.1225	-18.6272	78.6789	17.7123	251.5682	-0.0592	0.0182	-0.0073	-0.0462	0.0165	0.9585
44.9168	-4.9233	490.6992	32.3052	-173.2163	-39.0619	563.4119	9.1163	233.3405	-18.2659	74.2352	17.0186	237.2537	-0.0592	0.0182	-0.0073	-0.0462	0.0165	0.9585
44.9371	-5.9388	513.1383	34.0861	-180.9564	-40.9416	588.2426	9.7731	218.068	-17.6793	69.3314	16.1329	221.5236	-0.0592	0.0182	-0.0073	-0.0462	0.0165	0.9585
44.9575	-6.5107	544.7343	37.1365	-192.0226	-43.9647	622.4704	10.1572	201.1481	-16.817	63.9253	15.0574	204.2157	-0.0592	0.0182	-0.0073	-0.0462	0.0165	0.9585
44.9779	-6.5325	585.1355	41.4856	-206.2792	-48.1419	665.6223	10.0585	182.5289	-15.6549	58.0022	13.828	185.2689	-0.0592	0.0182	-0.0073	-0.0462	0.0165	0.9585
44.9982	-6.021	632.6059	47.021	-223.0841	-53.3777	715.786	9.2957	162.3319	-14.2095	51.5957	12.5106	164.7996	-0.0592	0.0182	-0.0073	-0.0462	0.0165	0.9585
45.0186	-5.0908	684.2707	53.4665	-241.3858	-59.4336	769.8754	7.8035	140.9584	-12.5397	44.8236	11.1806	143.2005	-0.0592	0.0182	-0.0073	-0.0462	0.0165	0.9585
45.0389	-3.8828	736.519	60.4071	-259.8719	-65.924	824.0524	5.678	119.1145	-10.7419	37.8998	9.905	121.1628	-0.0592	0.0182	-0.0073	-0.0462	0.0165	0.9585
45.0593	-2.5224	785.4185	67.3381	-277.1203	-72.355	874.1695	3.1635	97.6764	-8.9245	31.0972	8.7234	99.5456	-0.0592	0.0182	-0.0073	-0.0462	0.0165	0.9585
45.0796	-1.1159	827.1205	73.7421	-291.7452	-78.2055	916.2134	0.59129	77.502	-7.1843	24.6888	7.6393	79.2013	-0.0592	0.0182	-0.0073	-0.0462	0.0165	0.9585
45.1	0.23522	858.2956	79.1702	-302.557	-83.0226	946.7607	-1.6808	59.2657	-5.5909	18.893	6.6202	60.8059	-0.0592	0.0182	-0.0073	-0.0462	0.0165	0.9585
45.1204	1.4358	876.5558	83.2836	-308.7185	-86.4683	963.404	-3.3314	43.3949	-4.1861	13.8497	5.6143	44.7859	-0.0592	0.0182	-0.0073	-0.0462	0.0165	0.9585
45.1407	2.432	880.853	85.8555	-309.8885	-88.3132	965.137	-4.133	30.0942	-2.9999	9.625	4.5851	31.3405	-0.0592	0.0182	-0.0073	-0.0462	0.0165	0.9585
45.1611	3.241	871.7466	86.7631	-306.3132	-88.4216	952.6162	-4.0494	19.4228	-2.0623	6.2363	3.5526	20.5196	-0.0592	0.0182	-0.0073	-0.0462	0.0165	0.9585
45.1814	3.9559	851.3833	86.0194	-298.8069	-86.7834	928.1349	-3.3517	11.3449	-1.3809	3.6682	2.6063	12.2808	-0.0592	0.0182	-0.0073	-0.0462	0.0165	0.9585
45.2018	4.7399	823.2218	83.8034	-288.6413	-83.546	895.3269	-2.4139	5.5617	-0.92323	1.8218	1.8272	6.3173	-0.0592	0.0182	-0.0073	-0.0462	0.0165	0.9585
45.2221	5.8045	791.5613	80.4408	-277.3682	-78.998	858.6773	-1.4744	1.5102	-0.63378	0.516	1.2266	2.0448	-0.0592	0.0182	-0.0073	-0.0462	0.0165	0.9585
45.2425	7.3458	760.8029	76.3711	-266.5548	-73.5522	822.7629	-0.65589	-1.4421	-0.44922	-0.45085	0.76922	-1.1888	-0.0592	0.0182	-0.0073	-0.0462	0.0165	0.9585
45.2629	9.488	734.7152	72.0631	-257.5285	-67.672	791.5004	0.0025956	-3.8424	-0.30686	-1.2512	0.39551	-3.9301	-0.0592	0.0182	-0.0073	-0.0462	0.0165	0.9585
45.2832	12.2546	715.8976	67.9269	-251.1938	-61.7871	767.6021	0.51674	-6.0396	-0.15154	-1.992	0.039321	-6.5105	-0.0592	0.0182	-0.0073	-0.0462	0.0165	0.9585
45.3036	15.5691	705.4469	64.2821	-247.9181	-56.2616	752.2467	0.93183	-8.0921	0.05968	-2.6856	-0.35912	-8.9539	-0.0592	0.0182	-0.0073	-0.0462	0.0165	0.9585
45.3239	19.2667	702.8996	61.3441	-247.5076	-51.3793	745.0297	1.3018	-9.6911	0.3566	-3.2228	-0.84374	-10.8787	-0.0592	0.0182	-0.0073	-0.0462	0.0165	0.9585
45.3443	23.1086	706.3915	59.2152	-249.2623	-47.3327	744.1275	1.6743	-10.0804	0.74624	-3.3458	-1.4274	-11.3998	-0.0592	0.0182	-0.0073	-0.0462	0.0165	0.9585
45.3646	26.8035	713.0324	57.8854	-252.1114	-44.2156	746.6811	2.0793	-8.0019	1.1997	-2.6305	-2.0741	-9.0739	-0.0592	0.0182	-0.0073	-0.0462	0.0165	0.9585
45.385	30.0473	719.4417	57.2428	-254.8095	-42.0248	749.335	2.5146	-1.6909	1.6369	-0.48497	-2.6771	-1.8864	-0.0592	0.0182	-0.0073	-0.0462	0.0165	0.9585
45.4054	32.5701	722.3133	57.0828	-256.1435	-40.6563	748.8076	2.9242	11.0407	1.9087	3.8215	-3.0353	12.6596	-0.0592	0.0182	-0.0073	-0.0462	0.0165	0.9585
45.4257	34.1567	718.8117	57.1338	-255.0797	-39.9255	742.2921	3.1816	32.5573	1.7861	11.0747	-2.833	37.2628	-0.0592	0.0182	-0.0073	-0.0462	0.0165	0.9585
45.4461	34.6458	706.7265	57.0764	-250.8226	-39.585	727.6115	3.0766	64.9123	0.95401	21.9502	-1.6292	74.2673	-0.0592	0.0182	-0.0073	-0.0462	0.0165	0.9585
45.4664	33.9313	684.448	56.5637	-242.807	-39.3355	703.1804	2.3071	109.0383	-0.98218	36.7396	1.1285	124.7344	-0.0592	0.0182	-0.0073	-0.0462	0.0165	0.9585
45.4868	31.9879	651.0029	55.2516	-230.7089	-38.8506	668.0223	0.44892	163.6471	-4.4315	54.9794	6.0297	187.1819	-0.0592	0.0182	-0.0073	-0.0462	0.0165	0.9585
45.5071	28.9295	606.5034	52.8647	-214.6017	-37.8189	622.2147	-2.7784	224.5744	-9.5126	75.2424	13.254	256.826	-0.0592	0.0182	-0.0073	-0.0462	0.0165	0.9585
45.5275	25.0858	552.8745	49.3174	-195.2094	-36.0332	567.6166	-7.0267	286.3232	-15.6723	95.6879	22.0031	327.333	-0.0592	0.0182	-0.0073	-0.0462	0.0165	0.9585
